<?xml version="1.0" standalone="no"?>
<!DOCTYPE svg PUBLIC "-//W3C//DTD SVG 20010904//EN"
 "http://www.w3.org/TR/2001/REC-SVG-20010904/DTD/svg10.dtd">
<svg version="1.0" xmlns="http://www.w3.org/2000/svg"
 width="88.000000pt" height="88.000000pt" viewBox="0 0 88.000000 88.000000"
 preserveAspectRatio="xMidYMid meet">
<metadata>
Created by potrace 1.14, written by Peter Selinger 2001-2017
</metadata>
<g transform="translate(0.000000,88.000000) scale(0.100000,-0.100000)"
fill="#000000" stroke="none">
<path d="M116 730 c1 -36 2 -68 3 -73 0 -4 146 -6 323 -5 l322 3 1 63 c1 35
-3 66 -8 69 -6 3 -152 6 -326 7 l-317 1 2 -65z m338 14 c3 -8 10 -13 15 -9 5
3 12 1 16 -5 3 -5 1 -10 -4 -10 -6 0 -11 -12 -11 -26 0 -22 -2 -25 -15 -14
-12 10 -18 10 -30 0 -13 -11 -15 -8 -15 14 0 14 -5 26 -11 26 -5 0 -7 5 -4 10
4 6 11 8 16 5 5 -4 12 1 15 9 3 9 10 16 14 16 4 0 11 -7 14 -16z"/>
<path d="M117 613 c-3 -7 -2 -350 2 -378 0 -6 22 -10 49 -10 l47 1 3 51 c4 64
22 62 57 -6 23 -46 24 -47 69 -46 25 1 48 4 51 7 3 3 -7 31 -22 62 -19 38 -24
59 -17 64 42 27 57 134 26 191 -29 53 -72 71 -174 71 -48 0 -89 -3 -91 -7z
m175 -116 c14 -21 9 -45 -13 -60 -37 -26 -54 -15 -57 38 l-3 48 32 -7 c18 -3
37 -12 41 -19z"/>
<path d="M441 423 l0 -198 98 1 c105 2 138 12 180 58 34 36 46 96 46 222 l0
109 -162 3 -162 2 0 -197z m181 96 c43 -23 56 -114 23 -165 -19 -29 -42 -40
-80 -39 l-30 1 -1 99 c-1 55 1 103 3 108 6 11 61 9 85 -4z"/>
<path d="M239 163 c0 -10 -2 -30 -3 -45 -1 -16 2 -28 6 -28 4 0 8 20 8 45 0
42 -9 65 -11 28z"/>
<path d="M327 173 c-13 -12 -8 -83 6 -84 24 -2 52 3 61 12 6 5 -4 5 -23 -1
-37 -10 -47 2 -37 50 6 31 4 35 -7 23z"/>
<path d="M350 169 c0 -5 5 -7 10 -4 6 3 10 8 10 11 0 2 -4 4 -10 4 -5 0 -10
-5 -10 -11z"/>
<path d="M433 135 c0 -27 2 -38 4 -22 2 15 2 37 0 50 -2 12 -4 0 -4 -28z"/>
<path d="M475 164 c-20 -21 -16 -53 10 -70 14 -9 24 -10 35 -3 13 9 13 10 0 6
-22 -6 -50 11 -50 32 0 26 25 44 52 36 18 -5 20 -4 8 4 -21 15 -36 14 -55 -5z"/>
<path d="M701 139 c-1 -33 3 -49 14 -52 8 -4 17 -2 20 4 4 5 1 8 -6 7 -7 -2
-14 5 -16 14 -3 11 4 18 19 21 22 4 22 4 1 6 -14 1 -23 9 -26 24 -2 12 -5 1
-6 -24z"/>
<path d="M115 136 c0 -19 3 -38 7 -41 4 -4 5 1 4 12 -5 30 4 35 23 12 15 -19
19 -20 24 -6 4 10 2 14 -7 11 -7 -3 -18 7 -24 21 -16 35 -29 31 -27 -9z"/>
<path d="M186 155 c-3 -8 -1 -15 4 -15 5 0 11 -12 13 -27 3 -20 4 -15 6 15 1
41 -11 57 -23 27z"/>
<path d="M391 146 c7 -15 15 -23 17 -16 3 7 -3 19 -13 28 -15 16 -16 15 -4
-12z"/>
<path d="M558 147 c-3 -13 -1 -32 3 -43 5 -13 8 -7 8 24 1 46 -4 55 -11 19z"/>
<path d="M602 128 c1 -39 2 -40 5 -9 l4 34 28 -34 c31 -37 40 -30 30 21 l-6
35 -2 -35 -1 -35 -22 32 c-13 18 -26 33 -30 33 -5 0 -7 -19 -6 -42z"/>
<path d="M268 133 c7 -3 16 -2 19 1 4 3 -2 6 -13 5 -11 0 -14 -3 -6 -6z"/>
</g>
</svg>
